<?xml version="1.0" encoding="UTF-8"?>
<!DOCTYPE svg PUBLIC "-//W3C//DTD SVG 1.1//EN" "http://www.w3.org/Graphics/SVG/1.1/DTD/svg11.dtd">
<!-- Creator: CorelDRAW 2021 (64-Bit) -->
<svg xmlns="http://www.w3.org/2000/svg" xml:space="preserve" width="99.6511mm" height="113.585mm" version="1.1" style="shape-rendering:geometricPrecision; text-rendering:geometricPrecision; image-rendering:optimizeQuality; fill-rule:evenodd; clip-rule:evenodd"
viewBox="0 0 8906.02 10151.33"
 xmlns:xlink="http://www.w3.org/1999/xlink"
 xmlns:xodm="http://www.corel.com/coreldraw/odm/2003">
 <defs>
  <style type="text/css">
   <![CDATA[
    .fil0 {fill:#FEFEFE}
   ]]>
  </style>
 </defs>
 <g id="Layer_x0020_1">
  <metadata id="CorelCorpID_0Corel-Layer"/>
  <g id="_1721034322336">
   <path class="fil0" d="M3258.85 15.53c451.04,0 874.12,71.91 1293.93,189.17 404.37,112.95 781.08,289 1140.23,501.77 34.68,20.54 59.38,38.58 92.81,58.53 89.97,53.68 179.29,119.65 262,184.44l249.71 204.3c52.94,40.95 104.11,93.95 152.64,142.47 61.99,62 127.47,119.74 185.33,185.45 15.31,17.39 16.85,24 33.95,41.71l72.04 79.3c166.11,174.41 378.38,491.49 500.82,694.73l108.73 193.94c36.27,59.57 68.38,132.56 99.84,195.28 33.53,66.87 63.42,135.53 94.04,208.63 246.82,589.24 428.07,1310.2 428.07,1963.06l-7.53 499.44c-10.52,204.34 -43.01,423.89 -81.29,622.42 -32.99,171.12 -78.55,338.14 -124.63,503.41 -62.84,225.39 -161.21,471.61 -263.25,675.04 -203.29,405.29 -346.92,614.09 -613.98,944.8l-68.84 82.5c-13.5,14.59 -24.09,23.06 -38.08,37.58 -17.97,18.66 -20.58,27.28 -37.58,45.65l-321.73 306.32c-99.78,99.24 -235.58,188.63 -347.79,272.68 -143.94,107.82 -319.17,217.85 -481.36,298.03 -105.9,52.36 -204.04,109.87 -314.21,154.94 -71.78,29.37 -141.4,61.97 -218.27,91.96l-347.57 121.57c-291.85,95.34 -584.19,155.23 -890.22,206.98 -92.27,15.6 -178.28,23.81 -273.46,36.78 -50.82,6.93 -94,6.66 -144.93,13.97 -45.7,6.55 -100.91,11.42 -147.11,11.8l-143.89 7.45c-36.2,1.04 -34.53,6.05 -67.82,7.85l-393.51 7.53c-56.38,0 -183.03,-17.46 -219.44,0 8.34,31.24 45.63,39.4 75.75,52.89 204.61,91.7 488.39,151.39 708,192.45 224.24,41.94 455.58,68.34 684.61,87.2 328.67,27.06 816.04,4.54 1119.08,-37.85 265,-37.07 523.48,-96.57 778.84,-174.58 256.33,-78.32 541.01,-194.36 771.33,-333.43l293.58 -183.14c127.36,-84.59 239.24,-182.87 357.51,-278.1l249.03 -227.69c15.96,-17.31 17.88,-24.54 33.85,-41.81l227.17 -249.55c303.46,-340.63 621.17,-910.5 795.88,-1345.53 60.33,-150.22 119.04,-311.81 163.16,-472.46 95.84,-349.06 176.08,-691.97 203.8,-1059.85 60.1,-797.34 -27.34,-1597.19 -315.1,-2332.29 -131.55,-336.05 -194.59,-452.59 -357.85,-754.48 -160.87,-297.47 -380.41,-571.17 -595.55,-827.02 -15.19,-18.07 -16.54,-23.61 -34.25,-41.42 -16.18,-16.25 -25.77,-23.76 -40.46,-42.77 -74.56,-96.56 -185.06,-189.8 -273.6,-278.79l-83.23 -75.66c-109.08,-109.99 -351.02,-286.31 -484.15,-386.04 -61.18,-45.82 -125.83,-85.34 -189.8,-128.01 -260.52,-173.79 -543.72,-315.2 -831.73,-439.5 -500.12,-215.83 -1213.19,-391 -1795.43,-421.65 -199.99,-10.53 -417.24,-7.53 -628.08,-7.53l0 15.13z"/>
   <path class="fil0" d="M5929.94 5198.81c0,-350.37 506.98,-319.14 506.98,7.57 0,127.85 -101.69,242.14 -227.01,242.14 -82.42,0 -144.67,-7.74 -210.27,-77.27 -33.17,-35.14 -69.71,-106.11 -69.71,-172.43zm-5274.08 -90.8c0,-125.48 102.02,-242.14 227.01,-242.14 82.42,0 144.66,7.75 210.27,77.27 158.09,167.55 22.81,422.14 -142.16,422.14 -79.54,0 -164.42,-4 -228.44,-81.79 -34.3,-41.67 -66.66,-101.82 -66.66,-175.48zm2648.39 -264.84c0,-146.89 109.48,-249.71 264.84,-249.71 130.48,0 242.14,111.39 242.14,272.41 0,252.01 -364.59,325.47 -478.99,85.52 -9.22,-19.34 -27.99,-84.23 -27.99,-108.22zm1528.5 -1732.8c0,-255.93 288.81,-321.6 429.65,-179.95 161.63,162.58 48.65,429.66 -149.68,429.66 -102.03,0 -130.97,-11.38 -203.15,-76.82 -1.63,-1.47 -6.43,-5.59 -8.03,-7.11 -41.81,-39.44 -68.79,-106.15 -68.79,-165.78zm-3064.57 -52.97c0,-222.17 262.91,-331.17 429.21,-179.51 98.52,89.84 106.83,267.98 8.03,367.05 -156.54,156.98 -437.24,28.91 -437.24,-187.54zm-257.28 -45.4c0,112.15 13.48,188.23 61.04,279.86 30.9,59.5 -31.54,131.42 -54.53,188.23l-304.8 656.18c-14.55,35.26 -29.77,57.53 -44.4,91.81l-128.96 279.65c-15.09,29.79 -35.29,68.31 -42.88,100.88l-105.94 -7.57c-207.89,0 -356.61,112.45 -440.09,271.19 -88.43,168.17 -61.46,389.36 46.54,538.52 34.87,48.15 76.42,90.78 125.45,124.26 22.83,15.6 55.93,35.8 81.96,46.67 257.54,107.48 545.92,22 670.59,-231.35 77.21,-156.9 57.69,-345.16 -30.72,-499.32 -11.78,-20.54 -25.22,-34.79 -37.57,-53.24 6.07,-26.03 21.39,-50.81 33.46,-80.04 12.49,-30.25 24.33,-47.39 36.83,-76.67l467.05 -1008.47c12.51,-28.12 30.14,-50.72 37.74,-83.34 102.89,49.37 290.69,4.47 302.67,7.57 26.07,6.75 81.97,90.35 104.17,115.27l303.33 354.98c9.75,12.11 15.25,15.79 25.58,27.39l200.77 238.11c40.46,45.43 146.48,185.4 183.36,210.1 -174.45,260.52 45.4,217.67 45.4,279.98 0,136.61 17.11,89.77 -69.58,134.73 -91.48,47.43 -43.53,182.63 6.68,238.44 53.84,59.83 110.79,-2.4 168.84,-2.4 3.82,0 70.25,75.14 75.66,83.24 -20.64,88.61 -86.49,129.68 30.04,189.4 99.42,50.95 161.21,73.02 213.62,-36.54 6.35,-13.26 13.35,-24.54 21.19,-39.35 25.52,12.24 75.49,7.56 113.5,7.56 59.85,113.13 66.39,158.55 219.44,90.81 123.05,-54.45 55.3,-91.5 52.96,-196.74 40.24,-10.74 58.84,-54.27 90.8,-75.67 131.99,69.85 182.86,3.93 220.15,-128.63 10.13,-36.03 -1.75,-71.49 -29.32,-92.46 -83.19,-63.3 -84.89,21.68 -84.89,-142.1 0,-38.12 121.07,-42.83 121.07,-98.37 0,-44.19 -7.08,-87.68 -25.13,-126.21 -7.03,-15.02 -13.33,-28.31 -19.72,-40.82 -13.47,-26.32 -2.28,-22.09 -30.82,-29.71 40.71,-60.8 98.31,-115.13 144.88,-172.93l416.83 -491.18c13.41,-15.06 13.32,-18.75 26.73,-33.81 36.03,-40.43 164.74,-182.37 198.5,-232.8 80.91,38.81 216.72,44.49 310.25,22.7 104.82,198.09 196.28,409.36 297.61,610.4 101.85,202.04 194.61,408.35 300.17,607.86l-81.86 107.3c-113.69,186.96 -69.29,423.9 55.86,584.58 176.84,227.05 544.45,263.24 750.55,55.36 122.89,-123.94 153.22,-220.8 153.22,-399.17 0,-77.68 -28.08,-147.54 -55.38,-201.88 -56.29,-112.01 -148.21,-200.91 -266.66,-247.89 -75.1,-29.79 -120.86,-42.07 -222.77,-42.07 -31.32,-59.18 -60.77,-121.53 -90.8,-181.6 -15.15,-30.28 -30.23,-60.53 -45.41,-90.8l-229.48 -474.23c-58.32,-125.84 -129.1,-241.11 -182.32,-370.06 -18.54,-44.92 -92.94,-147.68 -70.12,-189.19l44.06 -92.96c103.31,-306.43 -115.52,-689.59 -515.55,-689.59 -218.82,0 -402.44,146.18 -464.43,345.23 -26.47,84.99 -33.19,192.89 -7.49,285.6 13.09,47.24 28.47,81.07 48.17,118.29 -40.92,61.12 -95.63,111.91 -140.56,169.67l-503.67 593.52c-38.52,47.7 -86.06,94.12 -120.01,144.83 -72.98,-17 -143.65,-79.92 -196.65,7.65 -7.87,13.01 -11.62,25.09 -20.26,40.27 -11.57,20.34 -14,18.54 -25.22,35.32 -28.75,0 -36.71,-4.69 -61.5,-6.61 -63.61,-4.92 -50.01,-7.29 -73.6,-62.61 -7.35,-17.24 -16.8,-34.58 -29.89,-45.81 -58.52,-50.23 -148.59,18.46 -205.79,31.79 -40.67,-60.73 -95.82,-119.8 -145.67,-172.14 -96.92,-101.77 -247.47,-303.19 -344.28,-404.84l-121.86 -142.98c-9.75,-12.11 -15.25,-15.79 -25.58,-27.39 -12.65,-14.19 -11.35,-15.77 -23.19,-29.77 -9.9,-11.71 -15.84,-15.52 -25.74,-27.23 -35.36,-41.78 -66.19,-79.17 -100.63,-118.8 274.89,-519.51 -337.86,-1015.76 -791.44,-662.8 -77.58,60.38 -169.55,210.12 -169.55,344.99z"/>
   <path class="fil0" d="M1745.49 893.28l0 15.14c29.38,6.84 219.34,128.9 246.63,146.84 41.88,27.52 78.67,49.4 121.78,74.96l126.51 77.81c41.51,27.29 78.74,49.54 121.2,75.54 44.05,26.98 78.08,47.32 122.24,74.49l122.04 75.14c24.78,8.5 121.66,-31.16 152.59,-41.47 380.27,-126.71 921.36,-256.3 1340.29,-256.3 183.23,0 345.92,-5.42 527.54,17.28 78.58,9.81 175.86,19.62 252.56,34.98 83.09,16.65 157.73,30.74 239.55,47.99 265.18,55.91 717.06,216.57 965.49,336l103.31 48.02c-15.15,-56.73 -184.67,-226.92 -233.44,-265.96 -254.3,-203.54 -481.26,-335.32 -787.01,-461.53 -747.05,-308.38 -1679.98,-482.31 -2546.75,-327.51 -203.38,36.32 -366.9,85.23 -555.65,163.19 -52.63,21.74 -114.35,47.86 -164.36,77.79l-154.52 87.6z"/>
   <path class="fil0" d="M4863.02 9095.73c-46.03,0 -55.2,-7.57 -98.36,-7.57 -595.49,0 -839.9,114.4 -1452.45,29.88 -339.47,-46.83 -703.18,-153.01 -1010.09,-276.27 -304.86,-122.42 -564.65,-267.75 -835.18,-451.18 -133.01,-90.19 -286.5,-224.79 -407.8,-326.19l-272.58 -272.24c-20.15,-20.72 -23.1,-32.53 -54.85,-36.05 -35.43,-3.94 -67.98,4.07 -92.1,6.74 -107.69,11.94 -414.2,20.29 -511.36,33.45 -29.54,3.99 -46.61,4.36 -86.24,4.78 -73.29,0.78 -45.8,36.27 44.57,146.24 124.94,152.03 128.25,138.67 276.07,276.31 137.87,128.37 491.31,348.25 653.18,444l239.26 131.52c38.98,23.74 79.38,41.88 119.61,62 20.19,10.09 40.15,20.39 60.42,30.38 359.74,177.18 769.02,318.36 1168.59,390.18 55.03,9.88 104.06,18.32 156.1,25.5 148.19,20.45 364.69,37.85 514.2,38.28 287.03,0.83 715.93,-57.61 991.84,-112.93 101.76,-20.39 201.19,-41.75 301.34,-61.87 50.34,-10.12 96.33,-20.48 149.09,-32.51 47.18,-10.76 130.95,-20.91 146.72,-42.44z"/>
   <path class="fil0" d="M2086 6258.17c208.62,0 177.91,287.54 30.26,287.54l-37.83 0c-75.74,0 -135.63,-71.04 -133.54,-142.91 2.32,-80.23 66.84,-144.62 141.11,-144.62zm-408.61 121.06c0,112.97 14.51,165.65 58.32,267.06 14.37,33.26 31.78,66.01 47.52,96.24 47.37,91.01 192.86,302.85 263.22,379.97 18.16,19.91 24.69,16.38 31.99,43.69 33.78,-2.82 24.01,-5.76 65.77,-55.3 191.65,-227.42 487.47,-642.5 297.57,-928.52 -63.03,-94.94 -184.93,-189.04 -310.37,-189.04 -139.45,0 -227.5,12.08 -338.7,122.89 -55.85,55.64 -115.31,154.68 -115.31,263.02z"/>
   <path class="fil0" d="M375.89 6810.54l181.6 0 5.44 -398.92c0.7,1.47 3.94,8.24 4.83,10.31l105.44 280.47c11.31,28.91 33.17,78.67 35.62,108.14l151.34 0 127.7 -349c5.08,-14.33 4.07,-12.89 10.55,-27.29l10.3 -19.97c0.56,-1.02 1.73,-3.26 2.79,-4.78l-0.06 317.87c-0.96,101.05 -29.1,83.17 181.67,83.17l0 -726.42c-204.47,0 -201.05,-19.16 -226.16,46.24l-125.15 313.73c-16.95,42.39 -39.84,89.45 -49.73,131.88 -19.35,-14.17 -44.44,-92.15 -55.14,-118.9l-100.53 -247.55c-15,-37.49 -40.54,-90.63 -48.64,-125.4l-211.87 0 0 726.42z"/>
   <path class="fil0" d="M4764.66 6417.07c0,133.35 11.22,205.85 107.65,300.95 122.82,121.11 332.54,132.02 482.69,24.55 141.61,-101.35 120.94,-203.53 120.94,-340.64l-385.91 0 0 128.64 227.01 0c-24.01,45.39 -26.53,65.71 -69.8,96.66 -65.3,46.72 -190.29,37.46 -254.06,-30.08 -63.52,-67.27 -67,-223.14 4.84,-302.37 43.26,-47.72 141.89,-68.49 210.98,-34.51 33.33,16.39 34.57,34.05 56.74,49.19 38.02,25.96 148.15,9.23 202.64,9.23 -63.32,-271.78 -431.8,-307.31 -592.22,-145.77 -35.95,36.2 -50.33,49.94 -76.22,97.82 -19.18,35.45 -35.28,94.35 -35.28,146.33z"/>
   <path class="fil0" d="M6315.85 6296c21.74,15.93 38.24,88.18 48.26,118.21 14.73,44.19 32.59,88.74 42.54,131.49l-166.46 0c4.38,-52.71 71.24,-196.56 75.66,-249.71zm-355.64 514.54l189.17 0c4.3,-51.69 33.76,-79.75 37.83,-128.63l272.41 0c3.37,40.49 28.29,87.64 37.83,128.63l189.17 0c-19.28,-82.75 -253.37,-679.5 -257.28,-726.42l-211.87 0c-2.75,33.03 -48.05,140.56 -61.42,180.73l-130.52 361.33c-11.34,33.39 -20.13,54.21 -32.17,88.91 -12.42,35.83 -24.49,58.18 -33.17,95.45z"/>
   <path class="fil0" d="M2971.32 6288.43c0,265.95 355.64,174.35 355.64,325.38 0,79.54 -157.07,90.27 -166.47,-22.7l-189.16 0c0,311.16 544.81,286.7 544.81,22.7 0,-178.5 -112.55,-195.47 -263.79,-250.75 -243.27,-88.93 55.82,-231.47 59.49,-67.06l196.73 0c0,-292.23 -537.24,-293.21 -537.24,-7.57z"/>
   <polygon class="fil0" points="4053.37,6810.54 4234.98,6810.54 4234.98,6084.13 4053.37,6084.13 "/>
  </g>
 </g>
</svg>
