<svg width="300" height="300" viewBox="0 0 300 300" fill="none" xmlns="http://www.w3.org/2000/svg">
<g clip-path="url(#clip0_897_294)">
<mask id="mask0_897_294" style="mask-type:luminance" maskUnits="userSpaceOnUse" x="0" y="0" width="300" height="300">
<path d="M300 0H0V300H300V0Z" fill="white"/>
</mask>
<g mask="url(#mask0_897_294)">
<path d="M80.7588 207.14C97.8005 189.783 109.914 176.883 109.914 176.883C125.485 156.611 119.115 136.108 119.115 136.108C116.512 120.296 127.645 108.665 127.645 108.665C139.244 90.4113 139.712 66.5397 137.974 56.9297C137.319 53.3063 140.66 50.2597 144.214 51.223C152.372 53.4347 163.392 61.258 158.805 88.028C156.922 99.013 161.282 110.558 169.152 114.393" stroke="#050705" stroke-width="3" stroke-linecap="round" stroke-linejoin="round"/>
<path d="M156.933 116.723C180.547 113.211 186.903 110.175 209.888 103.77C223.185 100.063 237.555 103.253 235.59 113.363C234.263 120.183 234.327 123.825 239.747 126.581C245.205 129.358 248.855 133.35 248.16 141.17C247.657 146.846 239.652 154.015 241.188 158.5C243.113 164.121 252.207 168.161 248.01 177.708C243.812 187.253 240.657 190.883 243.07 194.503C245.483 198.123 249.222 206.461 239.82 213.513C230.422 220.568 201.637 227.028 171.268 231.226C171.268 231.226 154.933 238.136 140.245 258.4" stroke="#050705" stroke-width="3" stroke-linecap="round" stroke-linejoin="round"/>
<path d="M94.9264 188.843C94.4998 187.687 93.0114 187.395 92.1614 188.287L72.2981 209.337C71.3481 210.337 71.1014 211.815 71.6981 213.06C74.8648 219.64 89.6914 248.263 130.94 274.322C131.648 274.772 132.596 274.627 133.131 273.98L150.555 252.81C151.2 252.033 150.996 250.868 150.14 250.335C110.763 225.755 98.0398 197.28 94.9264 188.843Z" fill="#9495BE"/>
<path d="M125.305 231.793C122.895 245.904 109.501 255.388 95.3896 252.976C81.2796 250.566 71.7962 237.173 74.2062 223.063C76.6179 208.951 90.0112 199.466 104.121 201.879C118.231 204.289 127.716 217.683 125.305 231.793Z" fill="#32338B"/>
<path d="M123.639 230.126C121.229 244.238 107.834 253.721 93.7227 251.309" stroke="#050705" stroke-width="3" stroke-linecap="round" stroke-linejoin="round"/>
<path d="M97.5824 213.206L98.0891 225.759L87.2324 236.359" stroke="#050705" stroke-width="3" stroke-linecap="round" stroke-linejoin="round"/>
<path d="M64.105 224.446C64.105 224.446 56.205 232.053 45.9316 240.953" stroke="#050705" stroke-width="3" stroke-linecap="round" stroke-linejoin="round"/>
<path d="M153.541 37.2917L162.186 25.625L153.541 37.2917Z" fill="white"/>
<path d="M153.541 37.2917L162.186 25.625" stroke="#050705" stroke-width="3" stroke-linecap="round" stroke-linejoin="round"/>
<path d="M118.854 23.853L128.23 34.9997L118.854 23.853Z" fill="white"/>
<path d="M118.854 23.853L128.23 34.9997" stroke="#050705" stroke-width="3" stroke-linecap="round" stroke-linejoin="round"/>
<path d="M106.666 57.1865L123.229 59.0632L106.666 57.1865Z" fill="white"/>
<path d="M106.666 57.1865L123.229 59.0632" stroke="#050705" stroke-width="3" stroke-linecap="round" stroke-linejoin="round"/>
<path d="M79.2212 118.676C97.68 118.676 112.667 133.663 112.667 152.122C112.667 170.581 97.68 185.568 79.2212 185.568C60.7625 185.568 45.7754 170.581 45.7754 152.122C45.7754 133.663 60.7625 118.676 79.2212 118.676Z" fill="#32338B"/>
<path d="M63.2764 151.385L73.2764 161.385L94.943 139.719" fill="#32338B"/>
<path d="M63.2764 151.385L73.2764 161.385L94.943 139.719" stroke="white" stroke-width="3" stroke-linecap="round" stroke-linejoin="round"/>
<g opacity="0.423062">
<path d="M220.627 12.2168C235.63 12.2168 247.812 24.3986 247.812 39.4022C247.812 54.4059 235.63 66.5877 220.627 66.5877C205.623 66.5877 193.441 54.4059 193.441 39.4022C193.441 24.3986 205.623 12.2168 220.627 12.2168Z" fill="#9495BE"/>
<path d="M207.666 39.4809L215.794 47.6091L233.405 29.998" fill="#9495BE"/>
<path d="M207.666 39.4809L215.794 47.6091L233.405 29.998" stroke="white" stroke-width="2.43846" stroke-linecap="round" stroke-linejoin="round"/>
</g>
<path d="M64.744 40.2051C76.536 40.2051 86.1102 49.7792 86.1102 61.5712C86.1102 73.3631 76.536 82.9373 64.744 82.9373C52.9521 82.9373 43.3779 73.3631 43.3779 61.5712C43.3779 49.7792 52.9521 40.2051 64.744 40.2051Z" fill="#9495BE"/>
<path d="M54.5576 61.6332L60.9459 68.0214L74.7872 54.1802" fill="#9495BE"/>
<path d="M54.5576 61.6332L60.9459 68.0214L74.7872 54.1802" stroke="white" stroke-width="1.91648" stroke-linecap="round" stroke-linejoin="round"/>
<g opacity="0.31866">
<path d="M131.592 9.56152C150.338 9.56152 165.559 24.7818 165.559 43.5279C165.559 62.2739 150.338 77.4942 131.592 77.4942C112.846 77.4942 97.626 62.2739 97.626 43.5279C97.626 24.7818 112.846 9.56152 131.592 9.56152Z" fill="#32338B"/>
<path d="M115.399 43.6261L125.555 53.7817L147.559 31.7778" fill="#32338B"/>
<path d="M115.399 43.6261L125.555 53.7817L147.559 31.7778" stroke="white" stroke-width="3.04669" stroke-linecap="round" stroke-linejoin="round"/>
</g>
<path d="M107.268 80.9082C121.382 80.9082 132.842 92.3682 132.842 106.483C132.842 120.597 121.382 132.057 107.268 132.057C93.1533 132.057 81.6934 120.597 81.6934 106.483C81.6934 92.3682 93.1533 80.9082 107.268 80.9082Z" fill="#1D1F40"/>
<path d="M95.0752 106.557L102.722 114.203L119.289 97.6357" fill="#1D1F40"/>
<path d="M95.0752 106.557L102.722 114.203L119.289 97.6357" stroke="white" stroke-width="2.29397" stroke-linecap="round" stroke-linejoin="round"/>
</g>
</g>
<defs>
<clipPath id="clip0_897_294">
<rect width="300" height="300" fill="white"/>
</clipPath>
</defs>
</svg>
